<svg width="301" height="145" viewBox="0 0 301 145" fill="none" xmlns="http://www.w3.org/2000/svg">
<path d="M3.46381 67.3801L3.55978 69.2558C3.55978 69.2558 13.5231 65.0681 19.5081 68.1304C19.7175 68.5142 20.1013 68.7585 20.5288 68.8022L23.0066 69.029C23.5388 69.0639 24.0448 68.7673 24.2716 68.2787C24.2716 68.2787 30.1694 65.4869 36.2677 68.6975L38.5797 69.7444L34.0517 45.9528L5.54895 40.4913L3.46381 67.3801Z" fill="#E0E0E0"/>
<path d="M1.86713 64.7453L1.9631 68.1216C1.9631 68.1216 11.8392 62.2239 21.724 68.3136L19.2113 52.0948C19.2026 52.0948 2.61743 61.3078 1.86713 64.7453Z" fill="#EBEBEB"/>
<path d="M0 40.3168C0 40.3168 11.8391 31.2085 20.7991 43.9287L21.7239 68.3136C21.7239 68.3136 10.8968 57.3208 0.767752 65.4694L0 40.3168Z" fill="#F5F5F5"/>
<path d="M21.7238 68.3136C21.7238 68.3136 31.9314 61.8052 39.3123 68.7062L37.1835 46.4327L20.8339 44.7663L21.7238 68.3136Z" fill="#EBEBEB"/>
<path d="M20.7815 43.9462C20.7815 43.9462 24.3062 36.0593 31.7918 36.827L36.5815 37.4814L39.1465 59.8596C39.1465 59.8596 27.4121 58.5073 21.715 68.3398L20.7815 43.9462Z" fill="#F5F5F5"/>
<path d="M21.7237 68.3136C21.6975 68.3136 21.6626 67.9733 21.619 67.3626C21.5841 66.6647 21.5318 65.7922 21.4794 64.7627C21.3835 62.4769 21.2526 59.4844 21.1043 56.1692C20.9647 52.8539 20.8338 49.8614 20.7291 47.5756C20.6855 46.5374 20.6419 45.6649 20.6157 44.9757C20.5895 44.3562 20.5895 44.016 20.6244 44.016C20.6506 44.016 20.7029 44.3475 20.7727 44.967C20.8425 45.5777 20.9211 46.4676 21.017 47.5668C21.1915 49.7654 21.366 52.8015 21.5056 56.1604C21.6452 59.5193 21.7324 62.5555 21.7673 64.754C21.7848 65.8533 21.7935 66.7432 21.7848 67.3626C21.7673 67.9733 21.7499 68.3136 21.7237 68.3136Z" fill="#E0E0E0"/>
<path d="M34.0341 41.1631C34.0254 41.2329 33.2664 41.0933 32.0537 41.1107C30.841 41.1282 29.1659 41.3725 27.4559 42.0879C25.7546 42.812 24.4023 43.8415 23.5473 44.7052C22.6836 45.5602 22.2648 46.1971 22.2038 46.1535C22.1776 46.136 22.2648 45.9703 22.4481 45.6736C22.6225 45.377 22.9279 44.9669 23.338 44.5046C24.1581 43.571 25.5278 42.463 27.2901 41.7215C29.0525 40.9799 30.8061 40.7705 32.045 40.8316C32.6644 40.8577 33.1704 40.9188 33.5019 41.006C33.8509 41.0846 34.0341 41.1369 34.0341 41.1631Z" fill="#E0E0E0"/>
<path d="M34.6535 43.7019C34.6448 43.7717 33.8858 43.6321 32.6731 43.6496C31.4604 43.667 29.7853 43.9113 28.0753 44.6267C26.374 45.3508 25.0217 46.3803 24.1667 47.244C23.303 48.099 22.8842 48.7359 22.8232 48.6923C22.797 48.6748 22.8842 48.5091 23.0674 48.2124C23.2419 47.9158 23.5473 47.5058 23.9573 47.0434C24.7774 46.1099 26.1472 45.0018 27.9095 44.2603C29.6719 43.5187 31.4255 43.3093 32.6643 43.3704C33.2838 43.3965 33.7898 43.4576 34.1213 43.5449C34.479 43.6234 34.6622 43.6757 34.6535 43.7019Z" fill="#E0E0E0"/>
<path d="M34.8107 46.4676C34.802 46.5374 34.043 46.3978 32.8303 46.4152C31.6176 46.4327 29.9425 46.6769 28.2325 47.3924C26.5312 48.1165 25.1789 49.146 24.324 50.0097C23.4602 50.8647 23.0415 51.5016 22.9804 51.4579C22.9542 51.4405 23.0415 51.2747 23.2247 50.9781C23.3992 50.6815 23.7045 50.2714 24.1146 49.809C24.9347 48.8755 26.3044 47.7675 28.0667 47.0259C29.8291 46.2843 31.5827 46.075 32.8216 46.136C33.441 46.1622 33.947 46.2233 34.2786 46.3105C34.6275 46.389 34.8107 46.4414 34.8107 46.4676Z" fill="#E0E0E0"/>
<path d="M35.3339 49.0413C35.3252 49.1111 34.5661 48.9715 33.3534 48.9889C32.1407 49.0064 30.4656 49.2507 28.7556 49.9661C27.0544 50.6902 25.7021 51.7197 24.8471 52.5834C23.9834 53.4384 23.5646 54.0753 23.5035 54.0317C23.4773 54.0142 23.5646 53.8484 23.7478 53.5518C23.9223 53.2552 24.2276 52.8451 24.6377 52.3827C25.4578 51.4492 26.8275 50.3412 28.5899 49.5996C30.3522 48.8581 32.1058 48.6487 33.3447 48.701C33.9641 48.7272 34.4702 48.7883 34.8017 48.8755C35.1594 48.9628 35.3426 49.0151 35.3339 49.0413Z" fill="#E0E0E0"/>
<path d="M35.9362 51.7546C35.9275 51.8244 35.1685 51.6848 33.9558 51.7023C32.7431 51.7197 31.068 51.964 29.358 52.6794C27.6567 53.4035 26.3044 54.433 25.4494 55.2967C24.5857 56.1517 24.1669 56.7886 24.1059 56.745C24.0797 56.7275 24.1669 56.5618 24.3502 56.2652C24.5246 55.9685 24.83 55.5585 25.2401 55.0961C26.0602 54.1626 27.4299 53.0546 29.1922 52.313C30.9546 51.5714 32.7082 51.362 33.9471 51.4231C34.5665 51.4493 35.0725 51.5103 35.404 51.5976C35.7617 51.6674 35.945 51.7197 35.9362 51.7546Z" fill="#E0E0E0"/>
<path d="M36.73 54.782C36.7213 54.8518 35.9012 54.6947 34.5838 54.7471C33.9207 54.7558 33.1442 54.8605 32.2805 55.0088C31.4255 55.192 30.5007 55.4363 29.5585 55.794C28.625 56.1605 27.7612 56.5967 27.0109 57.0416C26.2781 57.5127 25.6325 57.9664 25.1526 58.4201C24.1668 59.3013 23.7131 59.9992 23.652 59.9556C23.6259 59.9381 23.7306 59.7549 23.9312 59.4408C24.0272 59.2751 24.1668 59.0919 24.3413 58.8912C24.507 58.6818 24.7077 58.4463 24.952 58.2194C25.4231 57.7309 26.0687 57.2336 26.8103 56.7363C27.5693 56.2564 28.4418 55.8028 29.4102 55.4276C30.3786 55.0612 31.3295 54.8169 32.2107 54.6598C33.0919 54.529 33.8945 54.4505 34.575 54.4766C34.9153 54.4679 35.2207 54.5028 35.4824 54.529C35.7528 54.5552 35.9797 54.5813 36.1629 54.6337C36.5293 54.7035 36.73 54.7558 36.73 54.782Z" fill="#E0E0E0"/>
<path d="M36.8435 57.2161C36.8348 57.2859 36.0147 57.1288 34.6886 57.1986C34.0255 57.2161 33.2403 57.347 32.3853 57.5215C31.5304 57.7308 30.6143 58.01 29.6808 58.3939C28.756 58.7952 27.9097 59.2576 27.1681 59.7287C26.444 60.226 25.8071 60.6972 25.336 61.1595C24.3589 62.0582 23.9052 62.7561 23.8441 62.7212C23.8179 62.7038 23.9226 62.5206 24.1233 62.2065C24.2193 62.0407 24.3589 61.8575 24.5333 61.6481C24.6991 61.4387 24.8998 61.2032 25.1441 60.9676C25.6064 60.4703 26.2433 59.9643 26.9675 59.4408C27.7178 58.9435 28.5815 58.455 29.5325 58.0449C30.4921 57.6523 31.4431 57.3644 32.3156 57.1812C33.1967 57.0242 34.0081 56.9195 34.6886 56.9369C35.0289 56.9282 35.3342 56.9456 35.6047 56.9805C35.8751 56.998 36.102 57.0329 36.2852 57.0765C36.6516 57.1289 36.8523 57.1899 36.8435 57.2161Z" fill="#E0E0E0"/>
<path d="M18.2776 62.0407C18.2253 62.0843 17.7105 61.3864 16.6636 60.5139C15.6254 59.6415 13.9852 58.6207 11.9611 58.1583C9.93702 57.6959 8.01764 57.8879 6.70025 58.2194C5.37413 58.5509 4.6151 58.9522 4.58021 58.8912C4.57148 58.865 4.74597 58.7429 5.09495 58.5596C5.4352 58.3764 5.95867 58.1496 6.63045 57.9489C7.95657 57.5389 9.95447 57.2859 12.0571 57.7657C14.1597 58.2543 15.8435 59.3448 16.8555 60.2958C17.3703 60.7757 17.7367 61.2032 17.9722 61.5172C18.1904 61.84 18.295 62.0233 18.2776 62.0407Z" fill="#E0E0E0"/>
<path d="M18.0859 58.9086C18.0335 58.9522 17.5188 58.2543 16.4719 57.3818C15.4337 56.5094 13.7935 55.4886 11.7694 55.0262C9.74531 54.5638 7.82593 54.7558 6.50854 55.0873C5.18242 55.4188 4.42339 55.8202 4.3885 55.7591C4.37977 55.7329 4.55426 55.6108 4.90324 55.4276C5.24349 55.2443 5.76696 55.0175 6.43874 54.8169C7.76486 54.4068 9.76276 54.1538 11.8654 54.6336C13.9679 55.1222 15.6518 56.2128 16.6638 57.1637C17.1785 57.6436 17.545 58.0711 17.7805 58.3851C17.9986 58.708 18.1033 58.8912 18.0859 58.9086Z" fill="#E0E0E0"/>
<path d="M17.8938 55.7765C17.8414 55.8202 17.3267 55.1222 16.2798 54.2498C15.2416 53.3773 13.6014 52.3566 11.5773 51.8942C9.55321 51.4318 7.63383 51.6237 6.31644 51.9552C4.99032 52.2868 4.23129 52.6881 4.19639 52.627C4.17894 52.6008 4.36216 52.4787 4.70241 52.2955C5.04266 52.1123 5.56613 51.8854 6.23792 51.6848C7.56403 51.2747 9.56193 51.0217 11.6645 51.5016C13.7671 51.9901 15.4509 53.0807 16.463 54.0316C16.9777 54.5115 17.3441 54.939 17.5797 55.2531C17.8065 55.5759 17.9112 55.7591 17.8938 55.7765Z" fill="#E0E0E0"/>
<path d="M17.7021 52.6445C17.6498 52.6881 17.135 51.9901 16.0881 51.1177C15.0499 50.2452 13.4097 49.2245 11.3856 48.7621C9.36152 48.2997 7.44214 48.4916 6.12475 48.8231C4.79863 49.1547 4.0396 49.556 4.00471 49.4949C3.99598 49.4688 4.17047 49.3466 4.51945 49.1634C4.8597 48.9802 5.38317 48.7534 6.05495 48.5527C7.38107 48.1426 9.37897 47.8896 11.4816 48.3695C13.5842 48.858 15.268 49.9486 16.28 50.8996C16.7948 51.3794 17.1612 51.8069 17.3967 52.121C17.6149 52.4438 17.7195 52.627 17.7021 52.6445Z" fill="#E0E0E0"/>
<path d="M17.51 49.5124C17.4576 49.556 16.9429 48.8581 15.8959 47.9856C14.8577 47.1132 13.2175 46.0924 11.1935 45.63C9.16938 45.1676 7.25 45.3596 5.93261 45.6911C4.60649 46.0226 3.84747 46.424 3.81257 46.3629C3.80384 46.3367 3.97833 46.2146 4.32731 46.0314C4.66756 45.8481 5.19103 45.6213 5.86281 45.4206C7.18893 45.0106 9.18683 44.7576 11.2894 45.2374C13.392 45.726 15.0758 46.8166 16.0879 47.7675C16.6026 48.2474 16.969 48.6749 17.2046 48.9889C17.4227 49.3117 17.5274 49.495 17.51 49.5124Z" fill="#E0E0E0"/>
<path d="M17.3178 46.3803C17.2655 46.4239 16.7507 45.726 15.7038 44.8535C14.6656 43.9811 13.0254 42.9603 11.0013 42.4979C8.97724 42.0355 7.05786 42.2275 5.74047 42.559C4.41435 42.8905 3.65533 43.2918 3.62043 43.2308C3.6117 43.2046 3.78619 43.0825 4.13517 42.8992C4.47543 42.716 4.99889 42.4892 5.67068 42.2885C6.99679 41.8785 8.99469 41.6255 11.0973 42.1053C13.1999 42.5939 14.8837 43.6844 15.8957 44.6354C16.4105 45.1153 16.7769 45.5428 17.0125 45.8568C17.2306 46.1796 17.3353 46.3629 17.3178 46.3803Z" fill="#E0E0E0"/>
<path d="M296.701 54.5551L296.753 56.7536C296.753 56.7536 284.731 52.7491 278.022 56.8583C277.813 57.3207 277.394 57.6522 276.888 57.7308L274.017 58.2106C273.398 58.2979 272.779 57.9925 272.473 57.4429C272.473 57.4429 265.328 54.7034 258.497 59.0045L255.888 60.4353L259.055 32.2292L291.868 23.3041L296.701 54.5551Z" fill="#E0E0E0"/>
<path d="M298.341 51.3357L298.533 55.2966C298.533 55.2966 286.476 49.2855 275.457 57.2771L276.949 38.1007C276.949 38.1007 297.155 47.3923 298.341 51.3357Z" fill="#EBEBEB"/>
<path d="M298.341 22.6236C298.341 22.6236 283.693 13.0354 274.367 28.6958L275.457 57.2771C275.457 57.2771 287.13 43.4663 299.694 52.0948L298.341 22.6236Z" fill="#F5F5F5"/>
<path d="M275.457 57.2771C275.457 57.2771 262.946 50.5767 254.937 59.3012L255.443 33.0842L274.401 29.6816L275.457 57.2771Z" fill="#EBEBEB"/>
<path d="M274.384 28.7132C274.384 28.7132 269.01 21.4371 259.134 22.388L252.59 23.3215L251.282 49.6956C251.282 49.6956 267.928 46.3192 275.475 57.2946L274.384 28.7132Z" fill="#F5F5F5"/>
<path d="M275.457 57.2771C275.492 57.2771 275.501 56.8758 275.492 56.1516C275.475 55.3315 275.457 54.3108 275.431 53.0981C275.344 50.4197 275.23 46.9124 275.1 43.0301C274.969 39.1477 274.855 35.6404 274.768 32.962C274.724 31.7493 274.698 30.7286 274.672 29.9085C274.646 29.1843 274.611 28.7917 274.585 28.7917C274.55 28.7917 274.524 29.1931 274.498 29.9085C274.463 30.6326 274.454 31.6708 274.445 32.962C274.437 35.5445 274.506 39.1041 274.637 43.0475C274.768 46.9822 274.943 50.5418 275.1 53.1155C275.178 54.4067 275.248 55.445 275.309 56.1604C275.37 56.8758 275.422 57.2771 275.457 57.2771Z" fill="#E0E0E0"/>
<path d="M258.654 26.6455C258.671 26.7241 259.544 26.4972 260.957 26.41C262.37 26.3227 264.36 26.4623 266.419 27.1428C268.469 27.8408 270.144 28.9226 271.217 29.8474C272.299 30.7722 272.849 31.4789 272.918 31.4265C272.945 31.4091 272.822 31.2172 272.587 30.8856C272.351 30.5541 271.967 30.1092 271.435 29.6031C270.388 28.5911 268.687 27.4133 266.567 26.6979C264.438 25.9912 262.379 25.8952 260.931 26.0785C260.207 26.1657 259.631 26.2791 259.238 26.41C258.855 26.5409 258.645 26.6194 258.654 26.6455Z" fill="#E0E0E0"/>
<path d="M258.148 29.6642C258.165 29.7427 259.038 29.5159 260.451 29.4287C261.864 29.3414 263.854 29.481 265.913 30.1615C267.963 30.8595 269.638 31.9413 270.711 32.8661C271.793 33.7909 272.342 34.4976 272.412 34.4452C272.438 34.4278 272.316 34.2358 272.081 33.9043C271.845 33.5728 271.461 33.1278 270.929 32.6218C269.882 31.6098 268.181 30.432 266.061 29.7166C263.932 29.0099 261.873 28.9139 260.425 29.0971C259.701 29.1844 259.125 29.2978 258.732 29.4287C258.348 29.5595 258.139 29.6381 258.148 29.6642Z" fill="#E0E0E0"/>
<path d="M258.218 32.9184C258.235 32.997 259.108 32.7701 260.521 32.6829C261.934 32.5956 263.923 32.7352 265.982 33.4157C268.033 34.1137 269.708 35.1955 270.781 36.1203C271.863 37.0451 272.412 37.7518 272.482 37.6994C272.508 37.682 272.386 37.49 272.151 37.1585C271.915 36.827 271.531 36.382 270.999 35.876C269.952 34.864 268.251 33.6862 266.131 32.9708C264.002 32.2641 261.943 32.1681 260.495 32.3513C259.771 32.4386 259.195 32.552 258.802 32.6829C258.418 32.805 258.209 32.8835 258.218 32.9184Z" fill="#E0E0E0"/>
<path d="M257.834 35.9633C257.851 36.0418 258.724 35.815 260.137 35.7277C261.55 35.6405 263.54 35.7801 265.599 36.4606C267.649 37.1585 269.324 38.2403 270.397 39.1651C271.479 40.0899 272.029 40.7966 272.098 40.7443C272.124 40.7268 272.002 40.5349 271.767 40.2034C271.531 39.8718 271.147 39.4269 270.615 38.9209C269.568 37.9088 267.867 36.731 265.747 36.0156C263.618 35.3089 261.559 35.213 260.111 35.3962C259.387 35.4834 258.811 35.5968 258.418 35.7277C258.034 35.8586 257.825 35.9371 257.834 35.9633Z" fill="#E0E0E0"/>
<path d="M257.363 39.1826C257.38 39.2611 258.253 39.0343 259.666 38.947C261.079 38.8598 263.069 38.9994 265.127 39.6799C267.178 40.3778 268.853 41.4597 269.926 42.3845C271.008 43.3093 271.557 44.0159 271.627 43.9636C271.653 43.9461 271.531 43.7542 271.296 43.4227C271.06 43.0912 270.676 42.6462 270.144 42.1402C269.097 41.1281 267.396 39.9503 265.276 39.2349C263.147 38.5283 261.088 38.4323 259.64 38.6155C258.916 38.7027 258.34 38.8162 257.947 38.947C257.563 39.0779 257.354 39.1564 257.363 39.1826Z" fill="#E0E0E0"/>
<path d="M256.717 42.8032C256.735 42.8817 257.677 42.6287 259.23 42.5677C260.006 42.5153 260.922 42.5764 261.943 42.6724C262.955 42.8032 264.063 43.0126 265.197 43.3441C266.323 43.6931 267.37 44.1206 268.286 44.5743C269.185 45.0629 269.978 45.534 270.58 46.0225C271.811 46.9648 272.395 47.7413 272.465 47.6889C272.491 47.6715 272.36 47.4621 272.09 47.1131C271.968 46.9299 271.784 46.7292 271.558 46.5024C271.339 46.2756 271.086 46.0138 270.781 45.7695C270.188 45.2373 269.394 44.7226 268.487 44.1991C267.562 43.7106 266.489 43.2569 265.337 42.9079C264.177 42.5677 263.034 42.367 261.996 42.2536C260.949 42.1751 260.006 42.1576 259.212 42.2536C258.82 42.2798 258.462 42.3408 258.157 42.4019C257.843 42.4542 257.581 42.5066 257.372 42.5764C256.935 42.6811 256.709 42.7683 256.717 42.8032Z" fill="#E0E0E0"/>
<path d="M256.796 45.6474C256.813 45.7346 257.764 45.4729 259.317 45.438C260.094 45.4031 261.018 45.4816 262.039 45.6038C263.051 45.7695 264.159 46.0138 265.285 46.389C266.41 46.7729 267.439 47.244 268.347 47.7238C269.237 48.2386 270.022 48.7271 270.615 49.2244C271.837 50.1928 272.43 50.9693 272.5 50.9082C272.526 50.8908 272.395 50.6814 272.125 50.3237C271.994 50.1405 271.819 49.9398 271.601 49.713C271.392 49.4774 271.139 49.2244 270.833 48.9627C270.249 48.4218 269.464 47.8809 268.565 47.3399C267.649 46.8252 266.593 46.3366 265.442 45.944C264.29 45.5689 263.156 45.3246 262.109 45.1763C261.062 45.0716 260.111 45.0192 259.317 45.1065C258.916 45.1239 258.567 45.1763 258.253 45.2374C257.939 45.281 257.677 45.342 257.459 45.4118C257.014 45.534 256.787 45.6212 256.796 45.6474Z" fill="#E0E0E0"/>
<path d="M278.921 49.6345C278.99 49.6781 279.523 48.8231 280.674 47.7064C281.808 46.5896 283.641 45.2635 285.961 44.5307C288.291 43.8065 290.55 43.8589 292.112 44.138C293.691 44.4085 294.616 44.8098 294.651 44.7313C294.66 44.7051 294.441 44.5743 294.023 44.3911C293.604 44.2078 292.976 43.9897 292.173 43.8152C290.585 43.4488 288.238 43.3354 285.813 44.0857C283.396 44.836 281.529 46.2668 280.43 47.4708C279.872 48.0728 279.479 48.605 279.235 48.9976C278.999 49.3902 278.894 49.6257 278.921 49.6345Z" fill="#E0E0E0"/>
<path d="M278.86 45.9615C278.93 46.0051 279.462 45.1501 280.613 44.0334C281.748 42.9166 283.58 41.5905 285.9 40.8577C288.23 40.1335 290.489 40.1859 292.051 40.4651C293.63 40.7355 294.555 41.1369 294.59 41.0583C294.599 41.0322 294.381 40.9013 293.962 40.7181C293.543 40.5349 292.915 40.3168 292.112 40.1423C290.524 39.7758 288.177 39.6624 285.752 40.4127C283.335 41.163 281.468 42.5938 280.369 43.7978C279.811 44.3998 279.418 44.932 279.174 45.3246C278.947 45.7172 278.842 45.944 278.86 45.9615Z" fill="#E0E0E0"/>
<path d="M278.807 42.2798C278.877 42.3234 279.409 41.4684 280.561 40.3517C281.695 39.2349 283.527 37.9088 285.848 37.176C288.178 36.4518 290.437 36.5042 291.999 36.7834C293.578 37.0538 294.503 37.4552 294.538 37.3766C294.546 37.3505 294.328 37.2196 293.91 37.0364C293.491 36.8532 292.863 36.6351 292.06 36.4606C290.472 36.0941 288.125 35.9807 285.7 36.731C283.283 37.4813 281.416 38.9121 280.317 40.1161C279.758 40.7181 279.366 41.2503 279.122 41.6429C278.895 42.0355 278.781 42.2711 278.807 42.2798Z" fill="#E0E0E0"/>
<path d="M278.755 38.6068C278.825 38.6504 279.357 37.7954 280.508 36.6787C281.643 35.5619 283.475 34.2358 285.796 33.503C288.125 32.7788 290.385 32.8312 291.946 33.1104C293.525 33.3808 294.45 33.7822 294.485 33.7036C294.494 33.6775 294.276 33.5466 293.857 33.3634C293.438 33.1802 292.81 32.9621 292.007 32.7876C290.419 32.4211 288.073 32.3077 285.647 33.058C283.231 33.8083 281.363 35.2391 280.264 36.4431C279.706 37.0451 279.313 37.5773 279.069 37.9699C278.833 38.3625 278.729 38.5893 278.755 38.6068Z" fill="#E0E0E0"/>
<path d="M278.702 34.925C278.772 34.9687 279.304 34.1137 280.456 32.9969C281.59 31.8802 283.422 30.5541 285.743 29.8212C288.073 29.0971 290.332 29.1495 291.894 29.4286C293.473 29.6991 294.398 30.1004 294.433 30.0219C294.441 29.9957 294.223 29.8649 293.805 29.6816C293.386 29.4984 292.758 29.2803 291.955 29.1058C290.367 28.7394 288.02 28.626 285.595 29.3763C283.178 30.1266 281.311 31.5574 280.212 32.7614C279.653 33.3634 279.261 33.8956 279.017 34.2882C278.781 34.6808 278.676 34.9163 278.702 34.925Z" fill="#E0E0E0"/>
<path d="M278.651 31.2521C278.72 31.2957 279.253 30.4407 280.404 29.324C281.538 28.2072 283.37 26.8811 285.691 26.1483C288.021 25.4241 290.28 25.4765 291.842 25.7557C293.421 26.0261 294.346 26.4274 294.381 26.3489C294.389 26.3228 294.171 26.1919 293.753 26.0087C293.334 25.8255 292.706 25.6073 291.903 25.4329C290.315 25.0664 287.968 24.953 285.543 25.7033C283.126 26.4536 281.259 27.8844 280.16 29.0884C279.601 29.6904 279.209 30.2226 278.965 30.6152C278.729 31.0078 278.624 31.2346 278.651 31.2521Z" fill="#E0E0E0"/>
<path d="M46.5539 137.813L48.2551 139.976C48.2551 139.976 56.6219 126.567 66.3496 125.18C66.9167 125.459 67.5885 125.441 68.1294 125.118L71.2702 123.295C71.942 122.885 72.291 122.109 72.1427 121.332C72.1427 121.332 76.8277 113.018 86.8259 111.718L90.4728 111.02L65.39 88.0657L26.3655 103.936L46.5539 137.813Z" fill="#E8505B"/>
<path d="M42.4185 136.015L45.3761 139.976C45.3761 139.976 52.1899 124.604 69.1415 123.531L52.4603 106.291C52.4603 106.282 40.4206 131.278 42.4185 136.015Z" fill="#EBEBEB"/>
<path d="M19.5865 108.411C19.5865 108.411 26.0514 87.551 47.4699 95.1762L69.1502 123.522C69.1502 123.522 46.9464 119.526 41.7205 137.813L19.5865 108.411Z" fill="#F5F5F5"/>
<path d="M69.1501 123.531C69.1501 123.531 75.8504 107.146 90.4813 109.161L69.1501 84.3578L48.2201 96.162L69.1501 123.531Z" fill="#EBEBEB"/>
<path d="M47.4701 95.2198C47.4701 95.2198 45.036 82.831 54.6067 77.4306L60.8796 74.1589L82.8216 98.727C82.8216 98.727 67.676 107.015 69.1504 123.566L47.4701 95.2198Z" fill="#F5F5F5"/>
<path d="M69.1504 123.531C69.1242 123.548 68.8014 123.173 68.243 122.466C67.6411 121.698 66.8471 120.686 65.8962 119.465C63.8808 116.856 61.1937 113.367 58.2186 109.51C55.2349 105.663 52.5303 102.182 50.5149 99.5733C49.564 98.3519 48.7701 97.3486 48.1681 96.5721C47.6184 95.8654 47.3218 95.4553 47.348 95.4379C47.3741 95.4204 47.7144 95.7781 48.3077 96.4587C48.9096 97.1304 49.7385 98.1338 50.768 99.3726C52.8182 101.859 55.5839 105.34 58.5851 109.231C61.5863 113.122 64.256 116.673 66.1579 119.273C67.0652 120.529 67.8155 121.568 68.3914 122.362C68.8974 123.094 69.1678 123.504 69.1504 123.531Z" fill="#263238"/>
<path d="M61.3503 81.3828C61.3678 81.47 60.3034 81.6707 58.8377 82.5519C57.372 83.4156 55.5311 84.9685 53.9956 87.0799C52.4165 89.165 51.5353 91.4072 51.1427 93.0648C50.7588 94.7312 50.8199 95.813 50.724 95.813C50.6891 95.813 50.6716 95.5513 50.6542 95.0627C50.6193 94.5742 50.6891 93.8675 50.8286 93.0038C51.1514 91.2938 52.0064 88.9556 53.6292 86.8181C55.2083 84.6545 57.1364 83.1015 58.6807 82.2814C59.4571 81.8714 60.1289 81.6271 60.6 81.5049C61.0799 81.4002 61.3416 81.3566 61.3503 81.3828Z" fill="#263238"/>
<path d="M72.1513 91.7562C72.1862 91.8347 71.1655 92.2884 69.7259 93.3266C69.0018 93.8413 68.1992 94.5393 67.3791 95.3681C66.5764 96.2231 65.765 97.2264 65.0409 98.3693C64.3342 99.5209 63.7933 100.699 63.3833 101.798C62.9994 102.906 62.7289 103.935 62.5893 104.808C62.2927 106.562 62.3451 107.678 62.2578 107.678C62.2229 107.678 62.1967 107.399 62.1706 106.893C62.1531 106.64 62.1444 106.326 62.1706 105.968C62.1967 105.611 62.1967 105.201 62.2753 104.747C62.38 103.848 62.6155 102.784 62.9907 101.641C63.3833 100.507 63.9329 99.2941 64.657 98.1076C65.3986 96.9298 66.2449 95.909 67.0824 95.0453C67.9374 94.2077 68.7837 93.5185 69.5515 93.0299C69.9179 92.7595 70.2843 92.5763 70.5984 92.4018C70.9125 92.2186 71.1917 92.0877 71.4272 91.9917C71.8809 91.826 72.1426 91.7213 72.1513 91.7562Z" fill="#263238"/>
<path d="M75.65 94.7138C75.6849 94.7923 74.5769 95.2809 73.024 96.4499C72.2388 97.0083 71.3838 97.8022 70.4851 98.7008C69.6127 99.6344 68.7054 100.716 67.8853 101.938C67.0739 103.168 66.4108 104.415 65.8961 105.584C65.425 106.771 65.0411 107.862 64.8492 108.812C64.4304 110.706 64.4914 111.918 64.4042 111.918C64.3693 111.918 64.3519 111.622 64.3257 111.063C64.3082 110.784 64.317 110.453 64.3606 110.06C64.3868 109.667 64.4304 109.223 64.5351 108.743C64.6834 107.766 65.0411 106.64 65.5035 105.419C66.0095 104.215 66.6726 102.941 67.5014 101.685C68.3477 100.437 69.2725 99.3377 70.1798 98.4042C71.122 97.5056 72.0032 96.7291 72.832 96.1882C73.2334 95.9003 73.6172 95.6735 73.9575 95.4815C74.2977 95.2809 74.5944 95.1238 74.8474 95.0191C75.3534 94.7923 75.6413 94.6789 75.65 94.7138Z" fill="#263238"/>
<path d="M77.8397 97.5143C77.8833 97.5928 76.7578 98.0814 75.2223 99.2766C74.4371 99.8525 73.6083 100.664 72.7271 101.597C71.8809 102.557 71.0172 103.682 70.2232 104.93C69.4467 106.195 68.8273 107.469 68.3387 108.655C67.8938 109.859 67.5361 110.967 67.3616 111.918C66.969 113.82 67.0301 115.042 66.9341 115.05C66.8992 115.05 66.873 114.745 66.8556 114.195C66.8381 113.916 66.8469 113.585 66.8818 113.192C66.9079 112.8 66.9428 112.355 67.0388 111.866C67.1697 110.88 67.5099 109.746 67.9374 108.507C68.4173 107.286 69.0367 105.986 69.8219 104.695C70.6333 103.412 71.5232 102.278 72.4043 101.318C73.3204 100.385 74.1929 99.582 75.013 99.0236C75.4056 98.7183 75.7894 98.4914 76.1297 98.2995C76.4612 98.0901 76.7578 97.9331 77.0196 97.8284C77.543 97.5928 77.831 97.4881 77.8397 97.5143Z" fill="#263238"/>
<path d="M59.745 118.942C59.7188 119.02 58.5323 118.61 56.5344 118.436C54.554 118.252 51.7272 118.418 48.9005 119.578C46.0738 120.739 43.945 122.606 42.6625 124.124C41.3626 125.651 40.8042 126.785 40.7257 126.741C40.6995 126.732 40.813 126.436 41.0834 125.93C41.3451 125.424 41.7814 124.726 42.4095 123.923C43.6571 122.318 45.8121 120.355 48.726 119.16C51.64 117.964 54.554 117.851 56.5693 118.121C57.5814 118.252 58.384 118.444 58.9249 118.619C59.4658 118.785 59.7537 118.915 59.745 118.942Z" fill="#263238"/>
<path d="M56.8751 115.365C56.8489 115.443 55.6624 115.033 53.6645 114.859C51.684 114.675 48.8573 114.841 46.0306 116.001C43.2039 117.162 41.0751 119.029 39.7926 120.547C38.4927 122.074 37.9343 123.208 37.8558 123.164C37.8296 123.155 37.943 122.859 38.2135 122.353C38.4752 121.847 38.9114 121.149 39.5396 120.346C40.7872 118.741 42.9421 116.778 45.8561 115.583C48.7701 114.387 51.684 114.274 53.6994 114.544C54.7114 114.675 55.5141 114.867 56.055 115.042C56.5959 115.208 56.8838 115.338 56.8751 115.365Z" fill="#263238"/>
<path d="M53.9958 111.788C53.9696 111.866 52.7831 111.456 50.7852 111.281C48.8047 111.098 45.978 111.264 43.1513 112.424C40.3245 113.585 38.1958 115.452 36.9133 116.97C35.6133 118.497 35.055 119.631 34.9764 119.587C34.9503 119.578 35.0637 119.282 35.3341 118.776C35.5959 118.27 36.0321 117.572 36.6603 116.769C37.9079 115.164 40.0628 113.201 42.9768 112.006C45.8907 110.81 48.8047 110.697 50.8201 110.967C51.8321 111.098 52.6347 111.29 53.1757 111.465C53.7253 111.63 54.0045 111.761 53.9958 111.788Z" fill="#263238"/>
<path d="M51.1254 108.21C51.0992 108.289 49.9127 107.879 47.9148 107.704C45.9343 107.521 43.1076 107.687 40.2809 108.847C37.4542 110.008 35.3254 111.875 34.0429 113.393C32.743 114.92 32.1846 116.054 32.1061 116.01C32.0799 116.001 32.1933 115.705 32.4638 115.199C32.7255 114.693 33.1617 113.995 33.7899 113.192C35.0375 111.587 37.1924 109.624 40.1064 108.429C43.0204 107.233 45.9343 107.12 47.9497 107.39C48.9617 107.521 49.7644 107.713 50.3053 107.888C50.8462 108.053 51.1341 108.184 51.1254 108.21Z" fill="#263238"/>
<path d="M48.255 104.625C48.2289 104.703 47.0423 104.293 45.0444 104.119C43.064 103.936 40.2373 104.101 37.4105 105.262C34.5838 106.422 32.455 108.289 31.1726 109.807C29.8726 111.334 29.3142 112.468 29.2357 112.424C29.2095 112.416 29.323 112.119 29.5934 111.613C29.8552 111.107 30.2914 110.409 30.9195 109.606C32.1671 108.001 34.3221 106.038 37.236 104.843C40.15 103.648 43.064 103.534 45.0793 103.805C46.0914 103.936 46.894 104.127 47.4349 104.302C47.9758 104.476 48.2638 104.599 48.255 104.625Z" fill="#263238"/>
<path d="M45.3849 101.048C45.3587 101.126 44.1722 100.716 42.1743 100.542C40.1938 100.358 37.3671 100.524 34.5404 101.685C31.7136 102.845 29.5849 104.712 28.3024 106.23C27.0024 107.757 26.4441 108.891 26.3743 108.847C26.3481 108.839 26.4615 108.542 26.732 108.036C26.9937 107.53 27.4299 106.832 28.0581 106.029C29.3057 104.424 31.4606 102.461 34.3746 101.266C37.2886 100.071 40.2025 99.9571 42.2179 100.228C43.2299 100.358 44.0326 100.55 44.5735 100.725C45.1057 100.899 45.3936 101.022 45.3849 101.048Z" fill="#263238"/>
<path d="M53.3504 96.668L59.3441 103.316C59.3441 103.316 61.2111 94.1205 69.351 90.6307L63.0258 83.8867C63.0258 83.8867 54.7201 86.6873 53.3504 96.668Z" fill="#EBEBEB"/>
<path d="M74.856 29.4199L73.9661 31.3742C73.9661 31.3742 86.2589 32.3775 90.6996 38.6155C90.7084 39.1128 90.9614 39.5665 91.3801 39.8282L93.7706 41.355C94.2941 41.6691 94.9572 41.6342 95.4457 41.259C95.4457 41.259 102.888 41.5295 107.363 47.9943L109.152 50.2714L117.082 23.8014L91.101 3.29019L74.856 29.4199Z" fill="#E8505B"/>
<path d="M74.6203 25.9127L72.9365 29.385C72.9365 29.385 86.0319 28.6086 92.8457 39.9678L98.822 22.231C98.822 22.2223 77.1853 22.833 74.6203 25.9127Z" fill="#EBEBEB"/>
<path d="M85.5782 0.193033C85.5782 0.193033 102.355 -2.79945 104.737 14.7803L92.8457 39.9591C92.8457 39.9591 87.6634 23.1383 73.1197 26.061L85.5782 0.193033Z" fill="#F5F5F5"/>
<path d="M92.8456 39.9678C92.8456 39.9678 106.604 38.7464 110.452 49.6083L120.005 25.9389L104.327 15.6528L92.8456 39.9678Z" fill="#EBEBEB"/>
<path d="M104.711 14.7977C104.711 14.7977 112.432 8.67318 119.604 13.3757L124.114 16.5514L114.945 40.5611C114.945 40.5611 103.778 33.0231 92.837 39.9765L104.711 14.7977Z" fill="#F5F5F5"/>
<path d="M92.8457 39.9678C92.8195 39.9504 92.9591 39.5927 93.2383 38.9471C93.5698 38.2229 93.9712 37.3156 94.4597 36.2337C95.559 33.8694 96.9985 30.7722 98.5951 27.3435C100.192 23.9148 101.631 20.8176 102.739 18.4533C103.237 17.3802 103.655 16.4816 103.996 15.7575C104.292 15.1206 104.475 14.7803 104.502 14.789C104.528 14.7978 104.406 15.1729 104.153 15.8273C103.908 16.4816 103.516 17.4238 103.027 18.5842C102.05 20.8962 100.628 24.0631 99.0052 27.5355C97.3824 31.0078 95.8644 34.1312 94.7476 36.3733C94.1893 37.4988 93.7269 38.3974 93.3953 39.0256C93.0725 39.645 92.8719 39.9765 92.8457 39.9678Z" fill="#263238"/>
<path d="M119.586 18.9506C119.534 19.0117 118.845 18.4795 117.606 17.86C116.376 17.2406 114.543 16.6037 112.441 16.438C110.338 16.2722 108.428 16.6124 107.11 17.0312C105.784 17.45 105.025 17.8688 104.99 17.799C104.973 17.7728 105.156 17.6507 105.496 17.4413C105.828 17.2319 106.351 16.9789 107.014 16.7259C108.34 16.2198 110.303 15.8185 112.485 15.9843C114.657 16.1588 116.541 16.8655 117.772 17.5809C118.391 17.9298 118.862 18.2614 119.159 18.5231C119.447 18.7761 119.604 18.9244 119.586 18.9506Z" fill="#263238"/>
<path d="M118.879 21.8471C118.827 21.9082 118.138 21.376 116.899 20.7566C115.669 20.1371 113.837 19.5003 111.734 19.3345C109.632 19.1687 107.721 19.509 106.404 19.9278C105.086 20.3465 104.318 20.7653 104.283 20.6955C104.266 20.6693 104.449 20.5472 104.79 20.3378C105.121 20.1284 105.645 19.8754 106.308 19.6224C107.634 19.1164 109.597 18.7151 111.778 18.8808C113.95 19.0553 115.835 19.762 117.065 20.4774C117.684 20.8264 118.155 21.1579 118.452 21.4196C118.749 21.6727 118.906 21.821 118.879 21.8471Z" fill="#263238"/>
<path d="M117.579 24.7262C117.527 24.7872 116.846 24.255 115.599 23.6356C114.369 23.0162 112.537 22.3793 110.434 22.2135C108.331 22.0478 106.421 22.388 105.103 22.8068C103.777 23.2256 103.018 23.6443 102.983 23.5745C102.966 23.5484 103.149 23.4262 103.489 23.2168C103.821 23.0075 104.344 22.7544 105.007 22.5014C106.334 21.9954 108.297 21.5941 110.478 21.7599C112.65 21.9343 114.534 22.641 115.765 23.3564C116.384 23.7054 116.855 24.0369 117.152 24.2987C117.44 24.5517 117.597 24.7087 117.579 24.7262Z" fill="#263238"/>
<path d="M116.759 27.614C116.707 27.6751 116.018 27.1429 114.779 26.5234C113.549 25.904 111.717 25.2671 109.614 25.1013C107.511 24.9356 105.601 25.2758 104.283 25.6946C102.966 26.1134 102.198 26.5322 102.163 26.4624C102.146 26.4362 102.329 26.314 102.669 26.1047C103.001 25.8953 103.524 25.6423 104.187 25.3893C105.514 24.8832 107.477 24.4819 109.658 24.6477C111.83 24.8222 113.714 25.5288 114.945 26.2442C115.564 26.5932 116.035 26.9248 116.332 27.1865C116.628 27.4308 116.777 27.5878 116.759 27.614Z" fill="#263238"/>
<path d="M115.948 30.6675C115.896 30.7286 115.207 30.1964 113.968 29.577C112.738 28.9575 110.905 28.3206 108.803 28.1549C106.7 27.9891 104.79 28.3294 103.472 28.7481C102.146 29.1669 101.387 29.5857 101.352 29.5159C101.335 29.4897 101.518 29.3676 101.858 29.1582C102.19 28.9488 102.713 28.6958 103.376 28.4428C104.702 27.9368 106.665 27.5354 108.847 27.7012C111.019 27.8757 112.903 28.5824 114.134 29.2978C114.753 29.6468 115.224 29.9783 115.521 30.24C115.809 30.493 115.966 30.6413 115.948 30.6675Z" fill="#263238"/>
<path d="M115.154 34.1573C115.102 34.2271 114.36 33.6339 112.999 32.9882C112.328 32.648 111.481 32.3426 110.53 32.046C109.571 31.7755 108.497 31.54 107.363 31.4091C106.22 31.287 105.121 31.2695 104.135 31.3306C103.149 31.4266 102.26 31.54 101.535 31.7494C100.078 32.1245 99.2496 32.5956 99.2059 32.5171C99.1885 32.491 99.3892 32.3601 99.7643 32.142C99.9475 32.0286 100.183 31.9151 100.471 31.8017C100.75 31.6796 101.073 31.5487 101.448 31.444C102.181 31.191 103.088 31.034 104.109 30.9205C105.13 30.8333 106.255 30.842 107.424 30.9642C108.593 31.1038 109.693 31.3568 110.67 31.6534C111.638 31.9849 112.493 32.3252 113.156 32.7091C113.497 32.8836 113.793 33.0755 114.046 33.2413C114.308 33.407 114.517 33.5553 114.683 33.7037C114.997 33.9654 115.172 34.1312 115.154 34.1573Z" fill="#263238"/>
<path d="M113.994 36.6787C113.941 36.7485 113.2 36.1552 111.821 35.5271C111.141 35.1955 110.277 34.9163 109.326 34.6459C108.358 34.4016 107.276 34.2097 106.124 34.105C104.973 34.0265 103.873 34.0439 102.879 34.1311C101.884 34.2533 100.994 34.3929 100.27 34.611C98.8131 35.0123 97.9756 35.4747 97.9407 35.4049C97.9232 35.3787 98.1239 35.2479 98.4991 35.0298C98.6823 34.9163 98.9178 34.8029 99.2057 34.6808C99.4849 34.5499 99.8077 34.4191 100.183 34.3056C100.916 34.0439 101.823 33.8607 102.835 33.7124C103.856 33.599 104.981 33.5641 106.168 33.6513C107.346 33.756 108.454 33.9654 109.448 34.2358C110.425 34.5412 111.298 34.864 111.978 35.2392C112.327 35.4049 112.624 35.5881 112.886 35.7626C113.147 35.9284 113.366 36.0767 113.531 36.2163C113.837 36.4867 114.011 36.6525 113.994 36.6787Z" fill="#263238"/>
<path d="M92.6537 31.8017C92.5752 31.8192 92.4269 30.842 91.8249 29.4025C91.2316 27.9717 90.1061 26.0785 88.3002 24.543C86.4942 23.0075 84.444 22.1961 82.9434 21.8384C81.4253 21.472 80.4395 21.4807 80.4482 21.4022C80.4482 21.376 80.6925 21.3411 81.1374 21.3411C81.5824 21.3411 82.228 21.3847 83.0132 21.5243C84.5748 21.8035 86.7211 22.5974 88.5968 24.194C90.4726 25.7906 91.598 27.7885 92.1215 29.2803C92.392 30.0307 92.5403 30.6588 92.6101 31.1038C92.6799 31.5487 92.6886 31.8017 92.6537 31.8017Z" fill="#263238"/>
<path d="M94.1106 28.53C94.0321 28.5475 93.8838 27.5704 93.2818 26.1308C92.6885 24.7 91.5631 22.8068 89.7571 21.2713C87.9511 19.7358 85.9009 18.9244 84.4003 18.5667C82.8822 18.2003 81.8964 18.209 81.9051 18.1305C81.9051 18.1043 82.1494 18.0694 82.5943 18.0694C83.0393 18.0694 83.6849 18.1131 84.4701 18.2526C86.0318 18.5318 88.178 19.3257 90.0537 20.9223C91.9295 22.5189 93.0549 24.5168 93.5784 26.0087C93.8489 26.759 93.9972 27.3871 94.067 27.8321C94.128 28.277 94.1368 28.53 94.1106 28.53Z" fill="#263238"/>
<path d="M95.559 25.2584C95.4805 25.2758 95.3322 24.2987 94.7302 22.8592C94.1369 21.4283 93.0115 19.5351 91.2055 17.9996C89.3996 16.4641 87.3493 15.6528 85.8487 15.2951C84.3307 14.9286 83.3448 14.9374 83.3535 14.8588C83.3535 14.8327 83.5978 14.7978 84.0427 14.7978C84.4877 14.7978 85.1333 14.8414 85.9185 14.981C87.4802 15.2602 89.6264 16.0541 91.5021 17.6507C93.3779 19.2472 94.5034 21.2451 95.0268 22.737C95.2973 23.4873 95.4456 24.1155 95.5154 24.5604C95.5852 25.0054 95.5939 25.2497 95.559 25.2584Z" fill="#263238"/>
<path d="M97.0159 21.9867C96.9374 22.0042 96.7891 21.027 96.1871 19.5875C95.5938 18.1567 94.4684 16.2635 92.6624 14.728C90.8565 13.1925 88.8062 12.3811 87.3056 12.0234C85.7876 11.657 84.8017 11.6657 84.8104 11.5872C84.8104 11.561 85.0547 11.5261 85.4997 11.5261C85.9446 11.5261 86.5902 11.5697 87.3754 11.7093C88.9371 11.9885 91.0833 12.7824 92.9591 14.379C94.8348 15.9756 95.9603 17.9735 96.4837 19.4653C96.7542 20.2156 96.9025 20.8438 96.9636 21.2888C97.0334 21.7337 97.0421 21.978 97.0159 21.9867Z" fill="#263238"/>
<path d="M98.4644 18.715C98.3858 18.7325 98.2375 17.7553 97.6355 16.3158C97.0423 14.885 95.9168 12.9918 94.1109 11.4563C92.3049 9.92077 90.2546 9.10939 88.754 8.75169C87.236 8.38526 86.2501 8.39399 86.2588 8.31547C86.2588 8.28929 86.5031 8.25439 86.9481 8.25439C87.393 8.25439 88.0386 8.29802 88.8238 8.43761C90.3855 8.71679 92.5317 9.51072 94.4075 11.1073C96.2832 12.7039 97.4087 14.7018 97.9322 16.1936C98.2026 16.9439 98.3509 17.5721 98.4207 18.0171C98.4905 18.462 98.4905 18.7063 98.4644 18.715Z" fill="#263238"/>
<path d="M99.9213 15.4433C99.8427 15.4608 99.6944 14.4837 99.0924 13.0441C98.4992 11.6133 97.3737 9.72011 95.5678 8.1846C93.7618 6.6491 91.7116 5.83772 90.2109 5.48002C88.6929 5.11359 87.707 5.12232 87.7158 5.0438C87.7158 5.01763 87.96 4.98273 88.405 4.98273C88.8499 4.98273 89.4955 5.02635 90.2807 5.16594C91.8424 5.44512 93.9886 6.23905 95.8644 7.83562C97.7401 9.4322 98.8656 11.4301 99.3891 12.922C99.6595 13.6723 99.8078 14.3004 99.8776 14.7454C99.9387 15.1903 99.9474 15.4346 99.9213 15.4433Z" fill="#263238"/>
<path d="M236.171 112.259L234.697 114.579C234.697 114.579 250.13 118.008 254.676 126.715C254.597 127.343 254.841 127.963 255.33 128.381L258.096 130.737C258.706 131.234 259.553 131.304 260.233 130.912C260.233 130.912 269.629 132.56 274.184 141.555L276.051 144.757L290.76 112.547L261.385 81.9324L236.171 112.259Z" fill="#E8505B"/>
<path d="M236.485 107.757L233.737 111.866C233.737 111.866 250.497 113.175 257.162 128.791L267.867 107.321C267.867 107.321 240.289 104.293 236.485 107.757Z" fill="#EBEBEB"/>
<path d="M254.911 77.0293C254.911 77.0293 276.74 76.1743 276.67 98.9102L257.162 128.791C257.162 128.791 253.533 106.527 234.557 107.687L254.911 77.0293Z" fill="#F5F5F5"/>
<path d="M257.162 128.8C257.162 128.8 274.847 129.664 277.813 144.129L294.093 115.757L275.99 99.9485L257.162 128.8Z" fill="#EBEBEB"/>
<path d="M276.635 98.9277C276.635 98.9277 287.506 92.5065 295.785 99.739L300.95 104.564L285.098 133.433C285.098 133.433 272.238 121.908 257.127 128.818L276.635 98.9277Z" fill="#F5F5F5"/>
<path d="M257.162 128.8C257.136 128.783 257.389 128.355 257.86 127.588C258.383 126.759 259.073 125.677 259.901 124.368C261.69 121.603 264.08 117.903 266.733 113.812C269.367 109.711 271.749 106.012 273.538 103.238C274.367 101.929 275.056 100.847 275.588 100.027C276.077 99.268 276.356 98.8579 276.382 98.8754C276.408 98.8928 276.181 99.329 275.736 100.123C275.3 100.908 274.637 102.034 273.808 103.412C272.151 106.169 269.786 109.938 267.117 114.065C264.447 118.191 261.987 121.89 260.172 124.551C259.291 125.825 258.567 126.881 258.008 127.692C257.493 128.416 257.188 128.818 257.162 128.8Z" fill="#263238"/>
<path d="M294.791 106.815C294.73 106.876 293.962 106.064 292.496 105.052C291.772 104.538 290.847 104.014 289.783 103.517C288.71 103.046 287.488 102.609 286.171 102.313C284.845 102.034 283.554 101.911 282.385 101.894C281.215 101.903 280.151 101.99 279.279 102.147C277.525 102.452 276.487 102.871 276.461 102.793C276.452 102.766 276.696 102.644 277.167 102.452C277.403 102.348 277.691 102.243 278.04 102.147C278.389 102.051 278.773 101.911 279.226 101.833C280.107 101.624 281.189 101.501 282.393 101.475C283.597 101.475 284.923 101.58 286.276 101.868C287.628 102.173 288.875 102.627 289.966 103.142C291.048 103.674 291.973 104.241 292.688 104.799C293.063 105.061 293.36 105.34 293.63 105.576C293.91 105.803 294.119 106.029 294.293 106.221C294.642 106.579 294.817 106.788 294.791 106.815Z" fill="#263238"/>
<path d="M293.395 110.365C293.334 110.427 292.566 109.615 291.1 108.603C290.376 108.088 289.451 107.565 288.387 107.068C287.314 106.596 286.092 106.16 284.775 105.864C283.449 105.584 282.158 105.462 280.989 105.445C279.819 105.454 278.755 105.541 277.883 105.698C276.129 106.003 275.091 106.422 275.065 106.343C275.056 106.317 275.3 106.195 275.771 106.003C276.007 105.899 276.295 105.794 276.644 105.698C276.993 105.602 277.377 105.462 277.83 105.384C278.711 105.174 279.793 105.052 280.997 105.026C282.201 105.026 283.527 105.131 284.88 105.419C286.232 105.724 287.48 106.178 288.57 106.692C289.652 107.225 290.577 107.792 291.292 108.35C291.667 108.612 291.964 108.891 292.234 109.127C292.514 109.353 292.723 109.58 292.897 109.772C293.238 110.13 293.421 110.339 293.395 110.365Z" fill="#263238"/>
<path d="M291.24 113.794C291.179 113.855 290.411 113.044 288.945 112.032C288.221 111.517 287.297 110.994 286.232 110.496C285.159 110.025 283.938 109.589 282.62 109.292C281.294 109.013 280.003 108.891 278.834 108.874C277.665 108.882 276.6 108.97 275.728 109.127C273.974 109.432 272.936 109.851 272.91 109.772C272.901 109.746 273.145 109.624 273.617 109.432C273.852 109.327 274.14 109.223 274.489 109.127C274.838 109.031 275.222 108.891 275.676 108.812C276.557 108.603 277.639 108.481 278.843 108.455C280.046 108.455 281.373 108.559 282.725 108.847C284.077 109.153 285.325 109.606 286.415 110.121C287.497 110.653 288.422 111.22 289.137 111.779C289.513 112.041 289.809 112.32 290.08 112.555C290.359 112.782 290.568 113.009 290.743 113.201C291.083 113.559 291.257 113.777 291.24 113.794Z" fill="#263238"/>
<path d="M258.358 118.401C258.27 118.409 258.27 117.144 257.764 115.208C257.276 113.279 256.176 110.662 254.144 108.385C252.111 106.108 249.642 104.721 247.784 104.014C245.917 103.299 244.66 103.15 244.678 103.063C244.678 103.037 245 103.046 245.559 103.124C246.126 103.203 246.929 103.377 247.897 103.709C249.825 104.346 252.399 105.733 254.493 108.08C256.587 110.427 257.668 113.14 258.087 115.129C258.305 116.124 258.384 116.952 258.401 117.519C258.41 118.087 258.384 118.401 258.358 118.401Z" fill="#263238"/>
<path d="M260.774 114.501C260.687 114.51 260.687 113.244 260.181 111.308C259.692 109.38 258.593 106.762 256.56 104.485C254.527 102.208 252.058 100.821 250.2 100.114C248.333 99.3988 247.076 99.2505 247.094 99.1632C247.094 99.1371 247.417 99.1458 247.975 99.2243C248.542 99.3028 249.345 99.4773 250.313 99.8088C252.241 100.446 254.815 101.833 256.909 104.18C259.003 106.527 260.085 109.24 260.503 111.229C260.722 112.224 260.8 113.053 260.818 113.62C260.826 114.187 260.8 114.501 260.774 114.501Z" fill="#263238"/>
<path d="M263.191 110.601C263.103 110.61 263.103 109.345 262.597 107.408C262.109 105.48 261.009 102.862 258.977 100.585C256.944 98.3082 254.475 96.921 252.617 96.2143C250.749 95.4989 249.493 95.3506 249.511 95.2634C249.511 95.2372 249.833 95.2459 250.392 95.3245C250.959 95.403 251.762 95.5775 252.73 95.909C254.658 96.5459 257.232 97.9331 259.326 100.28C261.419 102.627 262.501 105.34 262.92 107.329C263.138 108.324 263.217 109.153 263.234 109.72C263.243 110.287 263.217 110.601 263.191 110.601Z" fill="#263238"/>
<path d="M265.607 106.701C265.52 106.71 265.52 105.445 265.014 103.508C264.525 101.58 263.426 98.9626 261.393 96.6855C259.361 94.4084 256.892 93.0212 255.033 92.3145C253.166 91.5991 251.91 91.4508 251.927 91.3636C251.927 91.3374 252.25 91.3461 252.808 91.4246C253.367 91.5032 254.178 91.6777 255.147 92.0092C257.075 92.6461 259.648 94.0333 261.742 96.3801C263.836 98.727 264.918 101.44 265.337 103.429C265.555 104.424 265.633 105.253 265.651 105.82C265.66 106.387 265.633 106.701 265.607 106.701Z" fill="#263238"/>
<path d="M268.024 102.801C267.937 102.81 267.937 101.545 267.431 99.6082C266.942 97.6801 265.843 95.0627 263.81 92.7856C261.777 90.5086 259.308 89.1214 257.45 88.4147C255.583 87.6993 254.327 87.551 254.344 87.4637C254.344 87.4376 254.667 87.4463 255.225 87.5248C255.784 87.6033 256.595 87.7778 257.563 88.1093C259.491 88.7462 262.065 90.1334 264.159 92.4803C266.253 94.8272 267.335 97.5405 267.753 99.5297C267.972 100.524 268.05 101.353 268.068 101.92C268.076 102.487 268.05 102.801 268.024 102.801Z" fill="#263238"/>
<path d="M270.441 98.9015C270.353 98.9102 270.353 97.6452 269.847 95.7084C269.359 93.7803 268.26 91.1629 266.227 88.8858C264.194 86.6088 261.725 85.2216 259.867 84.5149C258 83.7995 256.743 83.6512 256.761 83.5639C256.761 83.5377 257.083 83.5465 257.642 83.625C258.209 83.7035 259.012 83.878 259.98 84.2095C261.908 84.8464 264.482 86.2336 266.576 88.5805C268.67 90.9274 269.751 93.6407 270.17 95.6298C270.388 96.6244 270.467 97.4533 270.484 98.0203C270.493 98.5874 270.476 98.9015 270.441 98.9015Z" fill="#263238"/>
<path d="M272.229 113.794L266.541 122.03C266.541 122.03 275.239 121.001 282.856 125.843L288.134 117.013C288.125 117.022 280.064 110.697 272.229 113.794Z" fill="#EBEBEB"/>
</svg>
