<svg width="24" height="24" viewBox="0 0 24 24" fill="none" xmlns="http://www.w3.org/2000/svg">
<path d="M17.7098 2.79069C17.1108 2.58969 16.4808 2.50069 15.8498 2.50069C14.4598 2.49069 13.1108 2.95069 11.9998 3.79969C11.9098 3.73069 11.7998 3.66969 11.6998 3.61069C11.5998 3.54969 11.4198 3.40069 11.2698 3.32069L10.8898 3.15069C10.6898 3.04069 10.4808 2.96069 10.2598 2.88969C10.2398 2.87069 10.2098 2.84969 10.1698 2.83069H10.1108C9.51977 2.62969 8.90977 2.51969 8.27977 2.50069H8.16977C7.88977 2.50069 7.61077 2.51969 7.32977 2.56069H7.20977C6.90977 2.59969 6.61077 2.66969 6.32077 2.76969C2.58977 3.99069 1.25977 8.04069 2.38977 11.5807C3.02977 13.3897 4.06077 15.0307 5.40077 16.3797C7.34977 18.2597 9.48077 19.9197 11.7698 21.3397L12.0298 21.5007L12.2798 21.3497C14.5608 19.9197 16.6798 18.2597 18.6108 16.3897C19.9598 15.0407 20.9898 13.3897 21.6198 11.5807C22.7308 8.04069 21.4008 3.99069 17.7098 2.79069Z" fill="#ABB5BA"/>
</svg>
