<svg width="30" height="30" viewBox="0 0 30 30" fill="none" xmlns="http://www.w3.org/2000/svg">
<g id="open-book 2" clip-path="url(#clip0_1_1257)">
<g id="Group">
<g id="Group_2">
<g id="Group_3">
<path id="Vector" d="M26.4597 4.5891C26.4597 4.5883 26.4597 4.58739 26.4597 4.58658C26.4597 4.30284 26.349 4.03597 26.148 3.83445C25.9448 3.63072 25.6742 3.51849 25.3861 3.51849L9.28858 3.51849C8.69827 3.51849 8.21685 4.00062 8.21534 4.59335C8.20938 7.09214 7.68857 11.2786 4.66623 14.1667L21.5128 14.1667C21.7129 14.1667 21.9008 14.1156 22.0564 14.0191C25.8738 11.6487 26.4538 7.09356 26.4597 4.5891Z" fill="#27A857"/>
<path id="Vector_2" d="M9.28861 26.4816L25.3862 26.4816C25.6743 26.4816 25.9449 26.3694 26.1482 26.1657C26.3492 25.9641 26.4598 25.6971 26.4598 25.4136C26.4598 25.4127 26.4598 25.4118 26.4598 25.411C26.4538 22.9067 25.8738 18.3515 22.0564 15.981C21.9009 15.8845 21.7129 15.8335 21.5128 15.8335L4.66638 15.8335C7.68871 18.7216 8.20952 22.9081 8.21548 25.4069C8.21699 25.9995 8.69841 26.4816 9.28861 26.4816Z" fill="#27A857"/>
<path id="Vector_3" d="M22.7473 28.9267L22.7473 28.1483L9.28853 28.1483C7.78135 28.1483 6.55236 26.9203 6.54862 25.4108C6.54357 23.2913 6.12913 19.7965 3.7866 17.3215C4.83468 21.6021 4.15336 26.1146 3.5673 28.6864C3.49417 29.0075 3.56972 29.3393 3.77478 29.5966C3.97932 29.8529 4.28508 30 4.61326 30L21.6739 30C22.2657 30.0001 22.7473 29.5185 22.7473 28.9267Z" fill="#27A857"/>
<path id="Vector_4" d="M9.28852 1.85172L22.7473 1.85172L22.7473 1.07334C22.7473 0.481618 22.2657 -2.10478e-08 21.6739 -4.6917e-08L4.61356 -7.92649e-07C4.28527 -8.06999e-07 3.97962 0.14707 3.77507 0.403435C3.57012 0.660506 3.49426 0.992023 3.5676 1.31364C4.15376 3.88536 4.83497 8.39801 3.78689 12.6784C6.12932 10.2035 6.54367 6.70871 6.54872 4.58921C6.55235 3.07981 7.78135 1.85172 9.28852 1.85172Z" fill="#27A857"/>
</g>
</g>
</g>
</g>
<defs>
<clipPath id="clip0_1_1257">
<rect width="30" height="30" fill="white" transform="translate(30) rotate(90)"/>
</clipPath>
</defs>
</svg>
