<svg width="84" height="84" viewBox="0 0 84 84" fill="none" xmlns="http://www.w3.org/2000/svg">
<g id="sound-waves 4" clip-path="url(#clip0_1_49)">
<path id="Vector" d="M82.3997 35.2472C83.2841 35.2472 84 35.9631 84 36.8466V44.8465C84 45.7309 83.2841 46.4468 82.3997 46.4468C81.5162 46.4468 80.8002 45.7309 80.8002 44.8465V36.8466C80.8002 35.9631 81.5162 35.2472 82.3997 35.2472Z" fill="#DCFADF"/>
<path id="Vector_2" d="M74.3942 28.6957C75.2777 28.6957 75.9946 29.4125 75.9946 30.296V52.4481C75.9946 53.3325 75.2777 54.0485 74.3942 54.0485C73.5107 54.0485 72.7939 53.3325 72.7939 52.4481V30.296C72.7939 29.4125 73.5107 28.6957 74.3942 28.6957Z" fill="#DCFADF"/>
<path id="Vector_3" d="M66.3998 17.6471C67.2833 17.6471 68.0002 18.3631 68.0002 19.2465V64.0469C68.0002 64.9304 67.2833 65.6473 66.3998 65.6473C65.5164 65.6473 64.7995 64.9304 64.7995 64.0469V19.2465C64.7995 18.3631 65.5164 17.6471 66.3998 17.6471Z" fill="#DCFADF"/>
<path id="Vector_4" d="M58.4 25.647C59.2834 25.647 60.0003 26.363 60.0003 27.2474V54.4468C60.0003 55.3303 59.2834 56.0471 58.4 56.0471C57.5165 56.0471 56.7996 55.3303 56.7996 54.4468V27.2474C56.7996 26.363 57.5165 25.647 58.4 25.647Z" fill="#DCFADF"/>
<path id="Vector_5" d="M34.244 21.7734C35.1274 21.7734 35.8434 22.4893 35.8434 23.3737V59.3714C35.8434 60.2548 35.1274 60.9708 34.244 60.9708C33.3605 60.9708 32.6436 60.2548 32.6436 59.3714V23.3737C32.6436 22.4893 33.3605 21.7734 34.244 21.7734Z" fill="#DCFADF"/>
<path id="Vector_6" d="M18.3998 24.0466C19.2833 24.0466 20.0002 24.7635 20.0002 25.647V57.6465C20.0002 58.5309 19.2833 59.2468 18.3998 59.2468C17.5164 59.2468 16.8004 58.5309 16.8004 57.6465V25.647C16.8004 24.7635 17.5164 24.0466 18.3998 24.0466Z" fill="#DCFADF"/>
<path id="Vector_7" d="M10.3999 32.0465C11.2834 32.0465 12.0002 32.7634 12.0002 33.6469V49.6466C12.0002 50.5301 11.2834 51.247 10.3999 51.247C9.51642 51.247 8.80048 50.5301 8.80048 49.6466V33.6469C8.80048 32.7634 9.51642 32.0465 10.3999 32.0465Z" fill="#DCFADF"/>
<path id="Vector_8" d="M26.3995 11.2467C27.2839 11.2467 27.9999 11.9635 27.9999 12.847V70.4465C27.9999 71.3309 27.2839 72.0468 26.3995 72.0468C25.516 72.0468 24.8001 71.3309 24.8001 70.4465V12.847C24.8001 11.9635 25.516 11.2467 26.3995 11.2467Z" fill="#DCFADF"/>
<path id="Vector_9" d="M50.4001 36.8466C51.2836 36.8466 51.9996 37.5635 51.9996 38.447V44.8465C51.9996 45.7309 51.2836 46.4468 50.4001 46.4468C49.5167 46.4468 48.7998 45.7309 48.7998 44.8465V38.447C48.7998 37.5635 49.5167 36.8466 50.4001 36.8466Z" fill="#DCFADF"/>
<path id="Vector_10" d="M2.40004 36.3111C3.28351 36.3111 4.00037 37.027 4.00037 37.9105V44.8337C4.00037 45.7172 3.28351 46.4341 2.40004 46.4341C1.51656 46.4341 0.799706 45.7172 0.799706 44.8337V37.9105C0.799706 37.027 1.51656 36.3111 2.40004 36.3111Z" fill="#DCFADF"/>
<path id="Vector_11" d="M42.5504 33.2605C43.4348 33.2605 44.1508 33.9765 44.1508 34.8599V47.8842C44.1508 48.7677 43.4348 49.4846 42.5504 49.4846C41.6669 49.4846 40.951 48.7677 40.951 47.8842V34.8599C40.951 33.9765 41.6669 33.2605 42.5504 33.2605Z" fill="#DCFADF"/>
</g>
<defs>
<clipPath id="clip0_1_49">
<rect width="83.2" height="83.2" fill="white" transform="matrix(-1 0 0 1 84 6.10352e-05)"/>
</clipPath>
</defs>
</svg>
