<svg width="84" height="84" viewBox="0 0 84 84" fill="none" xmlns="http://www.w3.org/2000/svg">
<g id="sound-waves 2" clip-path="url(#clip0_1_25)">
<path id="Vector" d="M1.60034 35.2471C0.715942 35.2471 0 35.9631 0 36.8466V44.8464C0 45.7308 0.715942 46.4468 1.60034 46.4468C2.48383 46.4468 3.19977 45.7308 3.19977 44.8464V36.8466C3.19977 35.9631 2.48383 35.2471 1.60034 35.2471Z" fill="#DCFADF"/>
<path id="Vector_2" d="M9.60574 28.6956C8.72226 28.6956 8.0054 29.4125 8.0054 30.296V52.4481C8.0054 53.3325 8.72226 54.0484 9.60574 54.0484C10.4892 54.0484 11.2061 53.3325 11.2061 52.4481V30.296C11.2061 29.4125 10.4892 28.6956 9.60574 28.6956Z" fill="#DCFADF"/>
<path id="Vector_3" d="M17.6002 17.6471C16.7167 17.6471 15.9998 18.363 15.9998 19.2465V64.0469C15.9998 64.9304 16.7167 65.6472 17.6002 65.6472C18.4836 65.6472 19.2005 64.9304 19.2005 64.0469V19.2465C19.2005 18.363 18.4836 17.6471 17.6002 17.6471Z" fill="#DCFADF"/>
<path id="Vector_4" d="M25.6001 25.647C24.7166 25.647 23.9997 26.3629 23.9997 27.2473V54.4467C23.9997 55.3302 24.7166 56.047 25.6001 56.047C26.4835 56.047 27.2004 55.3302 27.2004 54.4467V27.2473C27.2004 26.3629 26.4835 25.647 25.6001 25.647Z" fill="#DCFADF"/>
<path id="Vector_5" d="M49.7561 21.7733C48.8726 21.7733 48.1566 22.4893 48.1566 23.3737V59.3713C48.1566 60.2548 48.8726 60.9707 49.7561 60.9707C50.6396 60.9707 51.3564 60.2548 51.3564 59.3713V23.3737C51.3564 22.4893 50.6396 21.7733 49.7561 21.7733Z" fill="#DCFADF"/>
<path id="Vector_6" d="M65.6002 24.0466C64.7167 24.0466 63.9998 24.7634 63.9998 25.6469V57.6464C63.9998 58.5308 64.7167 59.2467 65.6002 59.2467C66.4836 59.2467 67.1996 58.5308 67.1996 57.6464V25.6469C67.1996 24.7634 66.4836 24.0466 65.6002 24.0466Z" fill="#DCFADF"/>
<path id="Vector_7" d="M73.6001 32.0465C72.7166 32.0465 71.9998 32.7633 71.9998 33.6468V49.6466C71.9998 50.53 72.7166 51.2469 73.6001 51.2469C74.4836 51.2469 75.1995 50.53 75.1995 49.6466V33.6468C75.1995 32.7633 74.4836 32.0465 73.6001 32.0465Z" fill="#DCFADF"/>
<path id="Vector_8" d="M57.6005 11.2466C56.7161 11.2466 56.0002 11.9635 56.0002 12.847V70.4464C56.0002 71.3308 56.7161 72.0468 57.6005 72.0468C58.484 72.0468 59.1999 71.3308 59.1999 70.4464V12.847C59.1999 11.9635 58.484 11.2466 57.6005 11.2466Z" fill="#DCFADF"/>
<path id="Vector_9" d="M33.5999 36.8466C32.7164 36.8466 32.0004 37.5634 32.0004 38.4469V44.8464C32.0004 45.7308 32.7164 46.4468 33.5999 46.4468C34.4833 46.4468 35.2002 45.7308 35.2002 44.8464V38.4469C35.2002 37.5634 34.4833 36.8466 33.5999 36.8466Z" fill="#DCFADF"/>
<path id="Vector_10" d="M81.6 36.311C80.7165 36.311 79.9997 37.027 79.9997 37.9105V44.8337C79.9997 45.7172 80.7165 46.434 81.6 46.434C82.4835 46.434 83.2003 45.7172 83.2003 44.8337V37.9105C83.2003 37.027 82.4835 36.311 81.6 36.311Z" fill="#DCFADF"/>
<path id="Vector_11" d="M41.4496 33.2605C40.5652 33.2605 39.8493 33.9764 39.8493 34.8599V47.8842C39.8493 48.7677 40.5652 49.4845 41.4496 49.4845C42.3331 49.4845 43.049 48.7677 43.049 47.8842V34.8599C43.049 33.9764 42.3331 33.2605 41.4496 33.2605Z" fill="#DCFADF"/>
</g>
<defs>
<clipPath id="clip0_1_25">
<rect width="83.2" height="83.2" fill="white"/>
</clipPath>
</defs>
</svg>
