<svg width="84" height="84" viewBox="0 0 84 84" fill="none" xmlns="http://www.w3.org/2000/svg">
<g id="sound-waves 3" clip-path="url(#clip0_1_37)">
<path id="Vector" d="M81.9996 35.2472C82.884 35.2472 83.6 35.9631 83.6 36.8466V44.8465C83.6 45.7309 82.884 46.4468 81.9996 46.4468C81.1162 46.4468 80.4002 45.7309 80.4002 44.8465V36.8466C80.4002 35.9631 81.1162 35.2472 81.9996 35.2472Z" fill="#DCFADF"/>
<path id="Vector_2" d="M73.9942 28.6957C74.8777 28.6957 75.5945 29.4125 75.5945 30.296V52.4481C75.5945 53.3325 74.8777 54.0485 73.9942 54.0485C73.1107 54.0485 72.3939 53.3325 72.3939 52.4481V30.296C72.3939 29.4125 73.1107 28.6957 73.9942 28.6957Z" fill="#DCFADF"/>
<path id="Vector_3" d="M65.9998 17.6471C66.8833 17.6471 67.6002 18.3631 67.6002 19.2465V64.0469C67.6002 64.9304 66.8833 65.6473 65.9998 65.6473C65.1163 65.6473 64.3995 64.9304 64.3995 64.0469V19.2465C64.3995 18.3631 65.1163 17.6471 65.9998 17.6471Z" fill="#DCFADF"/>
<path id="Vector_4" d="M57.9999 25.647C58.8834 25.647 59.6003 26.363 59.6003 27.2474V54.4468C59.6003 55.3303 58.8834 56.0471 57.9999 56.0471C57.1165 56.0471 56.3996 55.3303 56.3996 54.4468V27.2474C56.3996 26.363 57.1165 25.647 57.9999 25.647Z" fill="#DCFADF"/>
<path id="Vector_5" d="M33.8439 21.7734C34.7274 21.7734 35.4434 22.4893 35.4434 23.3737V59.3714C35.4434 60.2548 34.7274 60.9708 33.8439 60.9708C32.9604 60.9708 32.2436 60.2548 32.2436 59.3714V23.3737C32.2436 22.4893 32.9604 21.7734 33.8439 21.7734Z" fill="#DCFADF"/>
<path id="Vector_6" d="M17.9998 24.0466C18.8833 24.0466 19.6002 24.7635 19.6002 25.647V57.6465C19.6002 58.5309 18.8833 59.2468 17.9998 59.2468C17.1163 59.2468 16.4004 58.5309 16.4004 57.6465V25.647C16.4004 24.7635 17.1163 24.0466 17.9998 24.0466Z" fill="#DCFADF"/>
<path id="Vector_7" d="M9.99988 32.0465C10.8834 32.0465 11.6002 32.7634 11.6002 33.6469V49.6466C11.6002 50.5301 10.8834 51.247 9.99988 51.247C9.11639 51.247 8.40045 50.5301 8.40045 49.6466V33.6469C8.40045 32.7634 9.11639 32.0465 9.99988 32.0465Z" fill="#DCFADF"/>
<path id="Vector_8" d="M25.9995 11.2467C26.8839 11.2467 27.5999 11.9635 27.5999 12.847V70.4465C27.5999 71.3309 26.8839 72.0468 25.9995 72.0468C25.116 72.0468 24.4001 71.3309 24.4001 70.4465V12.847C24.4001 11.9635 25.116 11.2467 25.9995 11.2467Z" fill="#DCFADF"/>
<path id="Vector_9" d="M50.0001 36.8466C50.8836 36.8466 51.5995 37.5635 51.5995 38.447V44.8465C51.5995 45.7309 50.8836 46.4468 50.0001 46.4468C49.1166 46.4468 48.3998 45.7309 48.3998 44.8465V38.447C48.3998 37.5635 49.1166 36.8466 50.0001 36.8466Z" fill="#DCFADF"/>
<path id="Vector_10" d="M1.99998 36.3111C2.88346 36.3111 3.60031 37.027 3.60031 37.9105V44.8337C3.60031 45.7172 2.88346 46.4341 1.99998 46.4341C1.1165 46.4341 0.399651 45.7172 0.399651 44.8337V37.9105C0.399651 37.027 1.1165 36.3111 1.99998 36.3111Z" fill="#DCFADF"/>
<path id="Vector_11" d="M42.1504 33.2605C43.0348 33.2605 43.7507 33.9765 43.7507 34.8599V47.8842C43.7507 48.7677 43.0348 49.4846 42.1504 49.4846C41.2669 49.4846 40.551 48.7677 40.551 47.8842V34.8599C40.551 33.9765 41.2669 33.2605 42.1504 33.2605Z" fill="#DCFADF"/>
</g>
<defs>
<clipPath id="clip0_1_37">
<rect width="83.2" height="83.2" fill="white" transform="matrix(-1 0 0 1 83.6 6.10352e-05)"/>
</clipPath>
</defs>
</svg>
