<svg width="775" height="219" viewBox="0 0 775 219" fill="none" xmlns="http://www.w3.org/2000/svg">
<g opacity="0.05">
<path d="M805.329 42.6114C805.329 42.6114 783.718 61.0223 621.713 65.4241C499.11 68.7541 268.346 8.08609 128.737 11.9903C-14.9537 15.971 0.482839 56.2378 0.482839 29.2529V69.5962C0.482839 69.5962 48.467 31.6643 131.877 32.0088C254.532 32.583 506.802 115.183 627.364 117.748C744.944 120.236 805.329 69.5962 805.329 69.5962V42.6114Z" fill="white"/>
</g>
<g opacity="0.1">
<path d="M778.619 41.9351C500.934 190.999 310.55 -4.28336 162.773 0.0720062C10.619 4.58019 0 80.7703 0 50.3974V95.8231C0 95.8231 50.0403 77.0333 135.809 71.2784C447.01 50.3974 465.152 237.166 609.79 217.212C754.428 197.259 855.16 0.847107 778.619 41.9351Z" fill="white" stroke="black"/>
</g>
</svg>
